<?xml version="1.0" encoding="iso-8859-1"?>
<!-- Generator: Adobe Illustrator 18.0.0, SVG Export Plug-In . SVG Version: 6.00 Build 0)  -->
<!DOCTYPE svg PUBLIC "-//W3C//DTD SVG 1.1//EN" "http://www.w3.org/Graphics/SVG/1.1/DTD/svg11.dtd">
<svg version="1.1" id="Capa_1" xmlns="http://www.w3.org/2000/svg" xmlns:xlink="http://www.w3.org/1999/xlink" x="0px" y="0px"
	 viewBox="0 0 512 512" style="enable-background:new 0 0 512 512;" xml:space="preserve">
<g>
	<g>
		<path style="fill:#ED2C39;" d="M400.969,296c-4.422,0-8-3.582-8-8v-8c0-4.418,3.578-8,8-8s8,3.582,8,8v8
			C408.969,292.418,405.391,296,400.969,296z"/>
	</g>
	<g>
		<path style="fill:#50BEE7;" d="M368.969,296c-4.422,0-8-3.582-8-8v-8c0-4.418,3.578-8,8-8s8,3.582,8,8v8
			C376.969,292.418,373.391,296,368.969,296z"/>
	</g>
	<g>
		<g>
			<path style="fill:#B1C3D0;" d="M442.898,296c-4.422,0-8-3.578-8-8V56c0-22.054-17.946-40-40-40
				c-10.68,0-20.718,4.156-28.274,11.703c-3.125,3.125-8.187,3.125-11.312,0c-3.126-3.125-3.126-8.195,0-11.313
				C365.89,5.82,379.953,0,394.898,0c30.875,0,56,25.125,56,56v232C450.898,292.422,447.32,296,442.898,296z"/>
		</g>
	</g>
	<g>
		<path style="fill:#E2E4E6;" d="M397.945,480h-283.89c-20.398,0-38.567-12.891-45.306-32.143L24,320h464l-44.75,127.857
			C436.512,467.109,418.342,480,397.945,480z"/>
	</g>
	<g>
		<path style="fill:#B1C3D0;" d="M397.945,480h-24.612l8.137,24.41c1.391,4.174,6.13,7.59,10.53,7.59s8-3.6,8-8v-24.162
			C399.31,479.868,398.641,480,397.945,480z"/>
	</g>
	<g>
		<path style="fill:#B1C3D0;" d="M114.055,480c-0.696,0-1.365-0.132-2.055-0.162V504c0,4.4,3.6,8,8,8s9.138-3.416,10.529-7.59
			l8.137-24.41H114.055z"/>
	</g>
	<g>
		<path style="fill:#E2E4E6;" d="M488,320H24c-8.837,0-16-7.163-16-16l0,0c0-8.837,7.163-16,16-16h464c8.837,0,16,7.163,16,16l0,0
			C504,312.837,496.837,320,488,320z"/>
	</g>
	<path style="fill:#576D7E;" d="M366.784,17.216C360.848,11.275,352.953,8,344.544,8c-8.402,0-16.296,3.272-22.24,9.216
		c-3.072,3.072-3.072,8.048,0,11.12l33.36,33.36c1.536,1.536,3.548,2.304,5.56,2.304c2.012,0,4.024-0.768,5.56-2.304
		c5.944-5.94,9.216-13.839,9.216-22.24S372.728,23.156,366.784,17.216z"/>
	<g>
		<path style="fill:#D0D7DA;" d="M397.945,480c20.398,0,38.567-12.891,45.306-32.143L488,320H24l5.6,16h318.435
			c16.382,0,27.949,16.049,22.769,31.59l-24,72c-3.267,9.8-12.438,16.41-22.769,16.41H72.588c8.466,14.625,24.124,24,41.467,24
			h219.278H397.945z"/>
	</g>
	<circle style="fill:#50BEE7;" cx="328" cy="80" r="8"/>
	<circle style="fill:#50BEE7;" cx="320" cy="112" r="8"/>
	<circle style="fill:#50BEE7;" cx="296" cy="88" r="8"/>
	<circle style="fill:#50BEE7;" cx="272" cy="64" r="8"/>
	<circle style="fill:#50BEE7;" cx="280" cy="152" r="8"/>
	<circle style="fill:#50BEE7;" cx="304" cy="176" r="8"/>
	<circle style="fill:#50BEE7;" cx="256" cy="128" r="8"/>
	<circle style="fill:#50BEE7;" cx="232" cy="104" r="8"/>
	<circle style="fill:#50BEE7;" cx="208" cy="80" r="8"/>
	<circle style="fill:#50BEE7;" cx="304" cy="56" r="8"/>
	<circle style="fill:#50BEE7;" cx="288" cy="120" r="8"/>
	<circle style="fill:#50BEE7;" cx="312" cy="144" r="8"/>
	<circle style="fill:#50BEE7;" cx="240" cy="72" r="8"/>
	<circle style="fill:#50BEE7;" cx="264" cy="96" r="8"/>
</g>
<g>
</g>
<g>
</g>
<g>
</g>
<g>
</g>
<g>
</g>
<g>
</g>
<g>
</g>
<g>
</g>
<g>
</g>
<g>
</g>
<g>
</g>
<g>
</g>
<g>
</g>
<g>
</g>
<g>
</g>
</svg>
