<?xml version="1.0" encoding="iso-8859-1"?>
<!-- Generator: Adobe Illustrator 19.0.0, SVG Export Plug-In . SVG Version: 6.00 Build 0)  -->
<svg version="1.1" id="Capa_1" xmlns="http://www.w3.org/2000/svg" xmlns:xlink="http://www.w3.org/1999/xlink" x="0px" y="0px"
	 viewBox="0 0 512 512" style="enable-background:new 0 0 512 512;" xml:space="preserve">
<path style="fill:#F9AC11;" d="M404.206,242.198h-29.978c14.486,0,26.231-11.744,26.231-26.231l0,0
	c0-14.486-11.744-26.231-26.231-26.231H344.25c14.486,0,26.231-11.744,26.231-26.231l0,0c0-14.486-11.744-26.231-26.231-26.231
	h-29.978c14.486,0,26.231-11.744,26.231-26.231l0,0c0-14.486-11.744-26.231-26.231-26.231h-44.967
	c14.486,0,26.231-11.744,26.231-26.231l0,0c0-14.486-11.744-26.231-26.231-26.231h-44.967c-14.486,0-26.231,11.744-26.231,26.231
	l0,0c0,14.486,11.744,26.231,26.231,26.231h-44.967c-14.486,0-26.231,11.744-26.231,26.231l0,0
	c0,14.486,11.744,26.231,26.231,26.231h-29.978c-14.486,0-26.231,11.744-26.231,26.231l0,0c0,14.486,11.744,26.231,26.231,26.231
	h-29.978c-14.486,0-26.231,11.744-26.231,26.231l0,0c0,14.486,11.744,26.231,26.231,26.231H89.437
	c-14.486,0-26.231,11.744-26.231,26.231l0,0c0,14.486,11.744,26.231,26.231,26.231h29.478c-14.486,0-26.231,11.744-26.231,26.231
	l0,0c0,14.486,11.744,26.231,26.231,26.231h30.478h2.81c-15.004,0-27.167,12.163-27.167,27.167l0,0
	c0,15.004,12.163,27.168,27.167,27.168h12.467c-8.019,4.723-13.403,13.44-13.403,23.42l0,0c0,15.004,12.163,27.168,27.167,27.168
	h44.967c-15.004,0-27.167,12.163-27.167,27.167l0,0c0,15.004,12.163,27.168,27.167,27.168h43.093
	c15.004,0,27.168-12.163,27.168-27.168l0,0c0-15.004-12.163-27.167-27.168-27.167h48.714c15.004,0,27.168-12.163,27.168-27.168l0,0
	c0-9.98-5.385-18.697-13.403-23.42h10.593c15.004,0,27.168-12.163,27.168-27.168l0,0c0-15.004-12.163-27.167-27.168-27.167h4.685
	h18.736h11.242c14.486,0,26.231-11.744,26.231-26.231l0,0c0-14.486-11.744-26.231-26.231-26.231h29.978
	c14.486,0,26.231-11.744,26.231-26.231l0,0C430.437,253.942,418.693,242.198,404.206,242.198z"/>
<g>
	<path style="fill:#984F02;" d="M175.624,347.121h-17.862c-14.486,0-26.231-11.744-26.231-26.231l0,0
		c0-14.486,11.744-26.231,26.231-26.231h-29.478c-14.486,0-26.231-11.744-26.231-26.231l0,0c0-14.486,11.744-26.231,26.231-26.231
		h29.978c-14.486,0-26.231-11.744-26.231-26.231l0,0c0-14.486,11.744-26.231,26.231-26.231h29.978
		c-14.486,0-26.231-11.744-26.231-26.231l0,0c0-14.486,11.744-26.231,26.231-26.231h29.978c-14.486,0-26.231-11.744-26.231-26.231
		l0,0c0-14.486,11.744-26.231,26.231-26.231h-38.847c-14.486,0-26.231,11.744-26.231,26.231l0,0
		c0,14.486,11.744,26.231,26.231,26.231h-29.978c-14.486,0-26.231,11.744-26.231,26.231l0,0c0,14.486,11.744,26.231,26.231,26.231
		h-29.978c-14.486,0-26.231,11.744-26.231,26.231l0,0c0,14.486,11.744,26.231,26.231,26.231H89.437
		c-14.486,0-26.231,11.744-26.231,26.231l0,0c0,14.486,11.744,26.231,26.231,26.231h29.478c-14.486,0-26.231,11.744-26.231,26.231
		l0,0c0,14.486,11.744,26.231,26.231,26.231h30.478h2.81c-15.004,0-27.167,12.163-27.167,27.167l0,0
		c0,15.004,12.163,27.168,27.167,27.168h12.467c-8.019,4.723-13.403,13.44-13.403,23.42l0,0c0,15.004,12.163,27.168,27.167,27.168
		h38.847c-15.004,0-27.167-12.163-27.167-27.168l0,0c0-9.98,5.385-18.697,13.403-23.42H191.05
		c-15.004,0-27.167-12.163-27.167-27.168l0,0c0-8.776,4.161-16.58,10.618-21.547"/>
	<path style="fill:#984F02;" d="M237.069,82.939c-9.657-3.87-16.478-13.317-16.478-24.357l0,0c0-14.486,11.744-26.231,26.231-26.231
		h-22.484c-14.486,0-26.231,11.744-26.231,26.231l0,0c0,14.486,11.744,26.231,26.231,26.231h13.115"/>
</g>
<path style="fill:#FFD840;" d="M269.305,76.94c4.636-4.732,7.495-11.211,7.495-18.358l0,0c0-14.486-11.744-26.231-26.231-26.231
	h22.484c14.486,0,26.231,11.744,26.231,26.231l0,0c0,14.486-11.744,26.231-26.231,26.231h-3.747"/>
<path style="fill:#984F02;" d="M237.069,502.632c-9.657-3.87-16.478-13.317-16.478-24.357l0,0c0-9.709,5.275-18.186,13.115-22.721
	l1.874-3.509h-11.242c-14.486,0-26.231,11.744-26.231,26.231l0,0c0,14.486,11.744,26.231,26.231,26.231h13.115"/>
<g>
	<path style="fill:#FFD840;" d="M328.762,347.121h7.12c14.486,0,26.231-11.744,26.231-26.231l0,0
		c0-14.486-11.744-26.231-26.231-26.231h29.478c14.486,0,26.231-11.744,26.231-26.231l0,0c0-14.486-11.744-26.231-26.231-26.231
		h-29.978c14.486,0,26.231-11.744,26.231-26.231l0,0c0-14.486-11.744-26.231-26.231-26.231h-29.978
		c14.486,0,26.231-11.744,26.231-26.231l0,0c0-14.486-11.744-26.231-26.231-26.231h-29.978c14.486,0,26.231-11.744,26.231-26.231
		l0,0c0-14.486-11.744-26.231-26.231-26.231h38.847c14.486,0,26.231,11.744,26.231,26.231l0,0c0,14.486-11.744,26.231-26.231,26.231
		h29.978c14.486,0,26.231,11.744,26.231,26.231l0,0c0,14.486-11.744,26.231-26.231,26.231h29.978
		c14.486,0,26.231,11.744,26.231,26.231l0,0c0,14.486-11.744,26.231-26.231,26.231h29.978c14.486,0,26.231,11.744,26.231,26.231l0,0
		c0,14.486-11.744,26.231-26.231,26.231h-29.478c14.486,0,26.231,11.744,26.231,26.231l0,0c0,14.486-11.744,26.231-26.231,26.231
		H344.25h-2.81c15.004,0,27.167,12.163,27.167,27.167l0,0c0,15.004-12.163,27.168-27.167,27.168h-12.467
		c8.019,4.723,13.403,13.44,13.403,23.42l0,0c0,15.004-12.163,27.168-27.167,27.168h-28.104c15.004,0,27.167-12.163,27.167-27.168
		l0,0c0-9.98,0-23.42,0-23.42c15.004,0,26.231-12.163,26.231-27.168l0,0c0-8.776-4.161-16.58-10.618-21.547"/>
	<path style="fill:#FFD840;" d="M256.575,502.632c9.657-3.87,16.478-13.317,16.478-24.357l0,0c0-9.709-5.275-18.186-13.115-22.721
		l-1.874-3.509h11.242c14.486,0,26.231,11.744,26.231,26.231l0,0c0,14.486-11.744,26.231-26.231,26.231H256.19"/>
</g>
<circle style="fill:#984F02;" cx="291.289" cy="290.907" r="41.22"/>
<path style="fill:#FFD840;" d="M291.289,249.692c-5.195,0-10.162,0.97-14.739,2.725c15.483,5.933,26.481,20.926,26.481,38.495
	s-10.998,32.563-26.481,38.495c4.578,1.754,9.544,2.725,14.739,2.725c22.765,0,41.22-18.454,41.22-41.22
	S314.055,249.692,291.289,249.692z"/>
<rect x="246.322" y="129.775" style="fill:#FFFFFF;" width="14.989" height="14.989"/>
<rect x="223.839" y="182.237" width="67.451" height="14.989"/>
<rect x="231.333" y="234.698" style="fill:#FFFFFF;" width="14.989" height="14.989"/>
<rect x="396.712" y="82.939" style="fill:#984F02;" width="14.989" height="14.989"/>
<rect x="411.701" y="105.423" style="fill:#F9AC11;" width="14.989" height="14.989"/>
<rect x="464.163" y="240.324" style="fill:#984F02;" width="14.989" height="14.989"/>
<rect x="68.827" y="77.313" style="fill:#F9AC11;" width="14.989" height="14.989"/>
<rect x="141.899" y="37.972" style="fill:#984F02;" width="14.989" height="14.989"/>
<rect x="96.932" y="105.423" style="fill:#D37E0E;" width="14.989" height="14.989"/>
<rect x="38.849" y="354.61" style="fill:#984F02;" width="14.989" height="14.989"/>
<rect x="14.492" y="397.709" style="fill:#F9AC11;" width="14.989" height="14.989"/>
<rect x="91.306" y="448.292" style="fill:#D37E0E;" width="14.989" height="14.989"/>
<rect x="8.871" y="465.159" style="fill:#984F02;" width="14.989" height="14.989"/>
<rect x="488.515" y="157.884" style="fill:#D37E0E;" width="14.614" height="14.989"/>
<rect x="419.195" y="392.083" style="fill:#F9AC11;" width="14.989" height="14.989"/>
<rect x="389.217" y="416.445" style="fill:#984F02;" width="14.989" height="14.989"/>
<rect x="449.174" y="495.137" style="fill:#D37E0E;" width="14.989" height="14.989"/>
<path d="M437.932,268.428c0-18.596-15.129-33.725-33.725-33.725h-1.952c3.596-5.363,5.699-11.808,5.699-18.736
	c0-18.596-15.129-33.725-33.725-33.725h-1.952c3.596-5.363,5.699-11.808,5.699-18.736c0-18.596-15.129-33.725-33.725-33.725h-1.952
	c3.596-5.363,5.699-11.808,5.699-18.736c0-18.596-15.129-33.725-33.725-33.725h-16.938c3.595-5.362,5.696-11.809,5.696-18.736
	c0-18.596-15.129-33.725-33.725-33.725h-14.882V0h-14.989v24.857h-15.096c-18.596,0-33.725,15.129-33.725,33.725
	c0,6.928,2.102,13.373,5.699,18.736h-16.941c-18.596,0-33.725,15.129-33.725,33.725c0,6.928,2.102,13.373,5.699,18.736h-1.952
	c-18.596,0-33.725,15.129-33.725,33.725c0,6.928,2.102,13.373,5.699,18.736h-1.952c-18.596,0-33.725,15.129-33.725,33.725
	c0,6.928,2.102,13.373,5.699,18.736h-1.952c-18.596,0-33.725,15.129-33.725,33.725c0,18.596,15.129,33.725,33.725,33.725h1.452
	c-3.596,5.363-5.699,11.808-5.699,18.736c0,18.596,15.129,33.725,33.725,33.725h2.451c-3.596,5.363-5.699,11.808-5.699,18.736
	c0,18.596,15.129,33.725,33.725,33.725h1.952c-3.596,5.363-5.699,11.808-5.699,18.736c0,18.596,15.129,33.725,33.725,33.725h16.941
	c-3.596,5.363-5.699,11.808-5.699,18.736c0,18.596,15.129,33.725,33.725,33.725h44.967c18.596,0,33.725-15.129,33.725-33.725
	c0-6.928-2.102-13.373-5.699-18.736h16.941c18.596,0,33.725-15.129,33.725-33.725c0-6.927-2.1-13.374-5.696-18.736h1.949
	c18.596,0,33.725-15.129,33.725-33.725c0-6.928-2.102-13.373-5.699-18.736h1.952c18.596,0,33.725-15.129,33.725-33.725
	c0-6.928-2.102-13.373-5.699-18.736h1.952C422.803,302.154,437.932,287.025,437.932,268.428z M339.845,287.165
	c-1.922-25.115-22.957-44.967-48.555-44.967c-26.861,0-48.714,21.853-48.714,48.714s21.853,48.714,48.714,48.714
	c22.991,0,42.3-16.015,47.39-37.473h35.549c10.331,0,18.736,8.405,18.736,18.736s-8.405,18.736-18.736,18.736h-45.467v14.989h15.489
	c10.331,0,18.736,8.405,18.736,18.736s-8.405,18.736-18.736,18.736h-29.978v14.989c10.331,0,18.736,8.405,18.736,18.736
	c0,10.331-8.405,18.736-18.736,18.736h-62.329v14.989h17.362c10.331,0,18.736,8.405,18.736,18.736s-8.405,18.736-18.736,18.736
	h-44.967c-10.331,0-18.736-8.405-18.736-18.736s8.405-18.736,18.736-18.736h14.489v-14.989h-59.456
	c-10.331,0-18.736-8.405-18.736-18.736c0-10.331,8.405-18.736,18.736-18.736h89.435v-14.989H149.393
	c-10.331,0-18.736-8.405-18.736-18.736s8.405-18.736,18.736-18.736h29.478v-14.989h-59.956c-10.331,0-18.736-8.405-18.736-18.736
	s8.405-18.736,18.736-18.736h95.555v-14.989H89.437c-10.331,0-18.736-8.405-18.736-18.736s8.405-18.736,18.736-18.736h126.907
	v-14.989h-96.929c-10.331,0-18.736-8.405-18.736-18.736s8.405-18.736,18.736-18.736h89.434v-14.989h-59.456
	c-10.331,0-18.736-8.405-18.736-18.736s8.405-18.736,18.736-18.736h81.94V129.78h-51.962c-10.331,0-18.736-8.405-18.736-18.736
	s8.405-18.736,18.736-18.736h63.204V77.318h-18.237c-10.331,0-18.736-8.405-18.736-18.736s8.405-18.736,18.736-18.736h44.967
	c10.331,0,18.736,8.405,18.736,18.736s-8.405,18.736-18.736,18.736v14.989h44.967c10.331,0,18.736,8.405,18.736,18.736
	s-8.405,18.736-18.736,18.736H276.3v14.989h67.95c10.331,0,18.736,8.405,18.736,18.736s-8.405,18.736-18.736,18.736h-37.972v14.989
	h67.95c10.331,0,18.736,8.405,18.736,18.736s-8.405,18.736-18.736,18.736h-52.961v14.989h82.939
	c10.331,0,18.736,8.405,18.736,18.736s-8.405,18.736-18.736,18.736H339.845z M325.014,290.912c0,18.596-15.129,33.725-33.725,33.725
	s-33.725-15.129-33.725-33.725s15.129-33.725,33.725-33.725S325.014,272.316,325.014,290.912z"/>
<rect x="193.861" y="339.621" width="14.989" height="14.989"/>
<rect x="283.795" y="392.083" width="14.989" height="14.989"/>
<rect x="224.338" y="339.621" width="26.231" height="14.989"/>
<g>
</g>
<g>
</g>
<g>
</g>
<g>
</g>
<g>
</g>
<g>
</g>
<g>
</g>
<g>
</g>
<g>
</g>
<g>
</g>
<g>
</g>
<g>
</g>
<g>
</g>
<g>
</g>
<g>
</g>
</svg>
