<?xml version="1.0" encoding="iso-8859-1"?>
<!-- Generator: Adobe Illustrator 19.0.0, SVG Export Plug-In . SVG Version: 6.00 Build 0)  -->
<svg version="1.1" id="Layer_1" xmlns="http://www.w3.org/2000/svg" xmlns:xlink="http://www.w3.org/1999/xlink" x="0px" y="0px"
	 viewBox="0 0 512 512" style="enable-background:new 0 0 512 512;" xml:space="preserve">
<g>
	<path style="fill:#700D00;" d="M124.042,176.102c-9.104-28.903-7.178-54.871,5.569-75.095
		c13.442-21.327,38.149-35.093,71.453-39.814l-2.33-16.442c-38.285,5.427-67.045,21.817-83.17,47.4
		c-15.431,24.482-17.976,55.236-7.336,89.012c12.527,39.77,24.36,77.336,24.984,121.372v37.117h16.605v-37.178
		c0-0.039,0-0.078-0.001-0.115C149.167,255.865,136.407,215.353,124.042,176.102z"/>
	<path style="fill:#700D00;" d="M454.554,92.153c-16.124-25.581-44.882-41.973-83.165-47.4l-2.33,16.442
		c33.3,4.721,58.007,18.488,71.449,39.814c12.749,20.224,14.674,46.192,5.569,75.094c-12.344,39.189-25.111,79.714-25.76,126.258
		c-0.001,0.039-0.001,0.076-0.001,0.115v33.672h16.605v-33.615c0.625-44.086,13.013-83.41,24.993-121.442
		C472.531,147.389,469.986,116.635,454.554,92.153z"/>
</g>
<g>
	<path style="fill:#EF5352;" d="M373.334,31.052l-6.221,43.838c-7.793-1.096-16.174-1.661-24.908-1.661H227.915
		c-8.734,0-17.115,0.565-24.908,1.661l-6.221-43.838c9.853-1.395,20.325-2.103,31.13-2.103h114.289
		C353.009,28.949,363.481,29.657,373.334,31.052z"/>
	<path style="fill:#EF5352;" d="M492.627,452.386v33.211H77.492v-33.211c0-19.196,2.613-37.772,7.495-55.418
		c-18.797-16.218-29.912-35.037-40.728-53.348C32.425,323.584,21.244,304.665,0,290.661l18.277-27.731
		c30.399,13.151,47.901,33.587,64.828,53.359c8.181,9.565,16.14,18.831,25.395,26.923c21.698-35.015,53.525-63.101,91.396-80.16
		l170.327-0.011C442.39,295.554,492.627,368.108,492.627,452.386z"/>
</g>
<g>
	<path style="fill:#FFFFFF;" d="M447.975,493.9c-4.586,0-8.303-3.716-8.303-8.303v-43.999c-1.309-18.94-6.042-37.271-14.074-54.487
		c-1.938-4.156-0.142-9.096,4.014-11.035c4.157-1.938,9.098-0.142,11.035,4.014c8.939,19.164,14.192,39.575,15.612,60.667
		c0.012,0.186,0.019,0.372,0.019,0.558v44.281C456.278,490.183,452.562,493.9,447.975,493.9z"/>
	<path style="fill:#FFFFFF;" d="M416.099,363.391c-2.534,0-5.036-1.156-6.665-3.344c-9.202-12.358-20.136-23.256-32.501-32.393
		c-3.688-2.726-4.468-7.924-1.744-11.612c2.725-3.688,7.926-4.467,11.612-1.744c13.678,10.108,25.775,22.164,35.953,35.83
		c2.739,3.678,1.977,8.879-1.7,11.618C419.562,362.857,417.824,363.391,416.099,363.391z"/>
</g>
<path style="fill:#B75548;" d="M503.697,493.9H66.422c-4.585,0-8.303-3.716-8.303-8.303c0-4.586,3.717-8.303,8.303-8.303h437.276
	c4.586,0,8.303,3.716,8.303,8.303C512,490.184,508.284,493.9,503.697,493.9z"/>
<rect x="276.757" y="211.608" style="fill:#8E4238;" width="16.605" height="55.351"/>
<g>
	<path style="fill:#B75548;" d="M307.2,219.911h-44.281c-4.586,0-8.303-3.716-8.303-8.303c0-4.586,3.716-8.303,8.303-8.303H307.2
		c4.586,0,8.303,3.716,8.303,8.303C315.503,216.195,311.786,219.911,307.2,219.911z"/>
	<path style="fill:#B75548;" d="M370.223,263.041c-10.572,27.82-44.68,48.2-85.164,48.2s-74.58-20.38-85.164-48.189
		c25.982-11.723,54.809-18.233,85.164-18.233C315.414,244.819,344.241,251.339,370.223,263.041z"/>
	<path style="fill:#B75548;" d="M364.489,86.186c-0.389,0-0.78-0.027-1.177-0.083c-4.541-0.644-7.698-4.847-7.055-9.386
		l7.064-49.816c0.644-4.54,4.847-7.697,9.386-7.055c4.541,0.644,7.698,4.847,7.055,9.386l-7.064,49.816
		C372.111,83.193,368.557,86.186,364.489,86.186z"/>
	<path style="fill:#B75548;" d="M205.869,87.846c-4.069,0-7.623-2.993-8.211-7.138l-7.532-53.137
		c-0.644-4.541,2.515-8.742,7.055-9.386c4.543-0.647,8.742,2.515,9.386,7.055l7.532,53.137c0.644,4.541-2.515,8.742-7.055,9.386
		C206.65,87.818,206.257,87.846,205.869,87.846z"/>
</g>
<g>
</g>
<g>
</g>
<g>
</g>
<g>
</g>
<g>
</g>
<g>
</g>
<g>
</g>
<g>
</g>
<g>
</g>
<g>
</g>
<g>
</g>
<g>
</g>
<g>
</g>
<g>
</g>
<g>
</g>
</svg>
