<?xml version="1.0" encoding="iso-8859-1"?>
<!-- Generator: Adobe Illustrator 21.0.0, SVG Export Plug-In . SVG Version: 6.00 Build 0)  -->
<svg version="1.1" id="Capa_1" xmlns="http://www.w3.org/2000/svg" xmlns:xlink="http://www.w3.org/1999/xlink" x="0px" y="0px"
	 viewBox="0 0 512 512" style="enable-background:new 0 0 512 512;" xml:space="preserve">
<polygon style="fill:#1C81BF;" points="286.958,15 256,15 235.984,99.121 286.958,79.105 "/>
<polygon style="fill:#69B1E9;" points="225.042,15 225.042,79.105 256,99.121 256,15 "/>
<rect x="384.162" y="110.608" transform="matrix(0.7071 -0.7071 0.7071 0.7071 35.6153 337.1978)" style="fill:#1C81BF;" width="81.359" height="30"/>
<rect x="72.155" y="84.939" transform="matrix(0.7071 -0.7071 0.7071 0.7071 -63.2988 98.4207)" style="fill:#69B1E9;" width="30" height="81.359"/>
<rect x="438.602" y="50.412" transform="matrix(0.7071 -0.7071 0.7071 0.7071 64.3758 349.1104)" style="fill:#B4D2D7;" width="30" height="92.869"/>
<rect x="11.964" y="81.844" transform="matrix(0.7071 -0.7071 0.7071 0.7071 -51.3743 69.6588)" style="fill:#E1EBF0;" width="92.869" height="30"/>
<polygon style="fill:#B4D2D7;" points="333.396,0 256,0 245.992,15 256,30 333.396,30 "/>
<rect x="178.6" style="fill:#E1EBF0;" width="77.4" height="30"/>
<path style="fill:#008DD9;" d="M256,76.917l-20.016,217.542L256,512c120.145,0,217.542-97.397,217.542-217.542
	S376.145,76.917,256,76.917z"/>
<path style="fill:#EFE2DD;" d="M256,133.792l-20.016,160.667L256,455.125c5.054,0,10.057,9.787,15.001,9.355
	c82.168-7.188,147.832-72.852,155.02-155.02c0.432-4.944-9.355-9.947-9.355-15.001c0-5.054,9.787-10.057,9.355-15.001
	c-7.188-82.168-72.852-147.832-155.02-155.021C266.057,124.005,261.054,133.792,256,133.792z"/>
<path style="fill:#1C81BF;" d="M38.458,294.458C38.458,414.603,135.855,512,256,512V76.917
	C135.855,76.917,38.458,174.313,38.458,294.458z"/>
<path style="fill:#FFF5F5;" d="M95.334,294.458c0,5.054-9.787,10.057-9.355,15.001c7.188,82.168,72.852,147.832,155.02,155.02
	c4.944,0.432,9.947-9.355,15.001-9.355V133.792c-5.054,0-10.057-9.787-15.001-9.355c-82.168,7.188-147.832,72.852-155.02,155.02
	C85.547,284.401,95.334,289.404,95.334,294.458z"/>
<g>
	
		<rect x="266.413" y="229.9" transform="matrix(0.7071 -0.7071 0.7071 0.7071 -83.6734 287.7951)" style="fill:#07485E;" width="78.299" height="30"/>
	<path style="fill:#07485E;" d="M271,165.205V124.45c-4.945-0.433-9.945-0.667-15-0.667c-5.055,0-10.055,0.234-15,0.667v40.755H271z
		"/>
	<path style="fill:#07485E;" d="M126.747,279.458H85.992c-0.433,4.945-0.667,9.945-0.667,15s0.234,10.055,0.667,15h40.755
		C126.747,309.458,126.747,279.458,126.747,279.458z"/>
	<path style="fill:#07485E;" d="M241,423.711v40.755c4.945,0.433,9.945,0.667,15,0.667c5.055,0,10.055-0.234,15-0.667v-40.755H241z"
		/>
	<path style="fill:#07485E;" d="M426.008,279.458h-40.755v30h40.755c0.433-4.945,0.667-9.945,0.667-15
		S426.44,284.403,426.008,279.458z"/>
</g>
<path style="fill:#008DD9;" d="M298.12,294.458c0-23.262-18.858-42.12-42.12-42.12l-20.016,42.12L256,336.578
	C279.262,336.578,298.12,317.72,298.12,294.458z"/>
<path style="fill:#1C81BF;" d="M213.88,294.458c0,23.262,18.858,42.12,42.12,42.12v-84.239
	C232.738,252.339,213.88,271.196,213.88,294.458z"/>
<g>
</g>
<g>
</g>
<g>
</g>
<g>
</g>
<g>
</g>
<g>
</g>
<g>
</g>
<g>
</g>
<g>
</g>
<g>
</g>
<g>
</g>
<g>
</g>
<g>
</g>
<g>
</g>
<g>
</g>
</svg>
