<?xml version="1.0" encoding="iso-8859-1"?>
<!-- Generator: Adobe Illustrator 18.0.0, SVG Export Plug-In . SVG Version: 6.00 Build 0)  -->
<!DOCTYPE svg PUBLIC "-//W3C//DTD SVG 1.1//EN" "http://www.w3.org/Graphics/SVG/1.1/DTD/svg11.dtd">
<svg version="1.1" id="Capa_1" xmlns="http://www.w3.org/2000/svg" xmlns:xlink="http://www.w3.org/1999/xlink" x="0px" y="0px"
	 viewBox="0 0 328.385 328.385" style="enable-background:new 0 0 328.385 328.385;" xml:space="preserve">
<g>
	<g>
		<path style="fill:#CE593F;" d="M61.89,301.282c-0.391-0.818-0.74-1.66-1.023-2.533C61.15,299.622,61.5,300.463,61.89,301.282z"/>
		<path style="fill:#CE593F;" d="M63.574,304.223c-0.542-0.782-1.02-1.61-1.454-2.464C62.553,302.614,63.033,303.44,63.574,304.223z
			"/>
		<path style="fill:#CE593F;" d="M59.836,292.267c0,0.993,0.093,1.962,0.227,2.919C59.929,294.23,59.836,293.26,59.836,292.267z"/>
		<path style="fill:#CE593F;" d="M65.418,306.508c-0.648-0.703-1.255-1.444-1.803-2.23
			C64.162,305.065,64.771,305.804,65.418,306.508z"/>
		<path style="fill:#CE593F;" d="M60.817,298.615c-0.284-0.894-0.489-1.821-0.652-2.763
			C60.327,296.794,60.534,297.72,60.817,298.615z"/>
		<path style="fill:#CE593F;" d="M65.616,306.726c1.382,1.461,2.967,2.722,4.714,3.743C68.583,309.45,66.999,308.185,65.616,306.726
			z"/>
		<path style="fill:#CE593F;" d="M260.691,88.891c-4.399,2.734-10.48,5.032-18.753,5.032c-12.235,0-18.941-5.022-24.152-9.058
			c-4.431-3.43-7.743-5.91-14.836-5.91s-10.35,2.479-14.779,5.91c-5.21,4.036-11.723,9.058-23.957,9.058
			c-12.234,0-18.733-5.022-23.943-9.058c-4.43-3.43-7.639-5.91-14.731-5.91c-7.091,0-10.295,2.479-14.725,5.91
			c-5.21,4.036-11.697,9.058-23.93,9.058c-1.84,0-3.532-0.129-5.127-0.336c0.07,0.009-0.144,0.028-0.074,0.036
			c-5.426,5.173-11.367,17.448-11.367,24.881v183.785c0,3.447,1.12,6.695,2.595,9.571c-0.968-0.383-1.763-0.179-2.655-0.695
			c3.103,1.798,6.829,3.503,10.666,3.503h166.543c11.626,0,22.851-10.776,22.851-22.402V108.481
			C270.316,100.873,266.229,93.837,260.691,88.891z M238.316,260.102c0,4.152-1.746,7.567-5.898,7.567H95.967
			c-4.152,0-7.651-3.415-7.651-7.567v-76.624c0-4.152,3.499-7.809,7.651-7.809h23.047c5.371-20,23.738-34.659,45.179-34.659
			c21.439,0,39.807,14.659,45.178,34.659h23.048c4.151,0,5.898,3.657,5.898,7.809V260.102z"/>
		<path style="fill:#CE593F;" d="M71.562,90.543c-0.183-0.091-0.363-0.183-0.543-0.276C71.2,90.36,71.378,90.452,71.562,90.543z"/>
		<path style="fill:#CE593F;" d="M78.116,92.919c-0.154-0.037-0.3-0.08-0.451-0.119C77.816,92.839,77.961,92.882,78.116,92.919z"/>
		<path style="fill:#CE593F;" d="M74.63,91.862c-0.089-0.033-0.185-0.061-0.273-0.095C74.445,91.8,74.54,91.829,74.63,91.862z"/>
	</g>
	<g>
		<path style="fill:#EF8829;" d="M89.498,78.756c-0.812,0.085-1.677,0.132-2.615,0.132C87.821,78.888,88.683,78.839,89.498,78.756z"
			/>
		<path style="fill:#EF8829;" d="M91.792,78.383c-0.568,0.128-1.181,0.22-1.81,0.301C90.612,78.604,91.224,78.51,91.792,78.383z"/>
		<path style="fill:#EF8829;" d="M239.249,47.669H99.16L74.249,68.326c3.136,1.638,5.657,3.239,7.933,5.003
			c3.222,2.496,5.802,4.305,9.693,5.206c3.908-0.898,6.5-2.967,9.73-5.469c5.211-4.036,11.695-9.102,23.927-9.102
			c12.234,0,18.718,5.001,23.93,9.036c4.43,3.43,7.631,5.899,14.724,5.899c7.093,0,10.294-2.485,14.724-5.915
			c5.21-4.036,11.695-9.061,23.929-9.061c12.234,0,18.719,5.021,23.93,9.057c4.431,3.431,7.633,5.909,14.727,5.909
			c7.095,0,10.297-2.479,14.728-5.911c2.278-1.763,4.797-3.014,7.935-4.653L239.249,47.669z"/>
	</g>
	<g>
		<path style="fill:#EF8829;" d="M250.203,18.29c0.123,0.164,0.25,0.326,0.362,0.5C250.453,18.615,250.327,18.454,250.203,18.29z"/>
		<path style="fill:#EF8829;" d="M251.579,21.157c0.033,0.129,0.085,0.251,0.111,0.382
			C251.664,21.408,251.612,21.287,251.579,21.157z"/>
		<path style="fill:#EF8829;" d="M250.993,19.577c0.086,0.175,0.184,0.343,0.258,0.525C251.177,19.92,251.079,19.753,250.993,19.577
			z"/>
		<path style="fill:#EF8829;" d="M249.657,17.628c-0.142-0.152-0.289-0.294-0.442-0.434
			C249.367,17.334,249.516,17.477,249.657,17.628z"/>
		<path style="fill:#EF8829;" d="M251.691,20.669H95.157c-4.466,0-8.1,3.792-8.1,8.258c0,0.543,0.056,1.742,0.158,1.742h156.538
			c4.465,0,8.098-3.791,8.098-8.256C251.852,21.87,251.794,20.669,251.691,20.669z"/>
		<path style="fill:#EF8829;" d="M245.294,15.19c0.164,0.032,0.319,0.089,0.479,0.13C245.612,15.279,245.459,15.222,245.294,15.19z"
			/>
		<path style="fill:#EF8829;" d="M246.735,15.62c0.181,0.072,0.351,0.163,0.526,0.247C247.087,15.782,246.917,15.692,246.735,15.62z
			"/>
		<path style="fill:#EF8829;" d="M248.051,16.296c0.172,0.109,0.337,0.228,0.5,0.349C248.387,16.523,248.224,16.405,248.051,16.296z
			"/>
	</g>
	<g>
		<path style="fill:#FDD44B;" d="M188.863,168.122c0.77,0.952,1.489,1.948,2.147,2.989
			C190.351,170.07,189.633,169.074,188.863,168.122z"/>
		<path style="fill:#FDD44B;" d="M164.193,156.336c1.259,0,2.496,0.099,3.719,0.242
			C166.688,156.435,165.452,156.336,164.193,156.336z"/>
		<path style="fill:#FDD44B;" d="M188.507,167.709c-0.668-0.797-1.375-1.557-2.117-2.284
			C187.132,166.152,187.84,166.912,188.507,167.709z"/>
		<path style="fill:#FDD44B;" d="M180.069,160.614c2.081,1.205,4.014,2.636,5.764,4.27
			C184.081,163.25,182.151,161.819,180.069,160.614z"/>
		<path style="fill:#FDD44B;" d="M205.725,194.533c-0.134-1.148-0.335-1.864-0.585-1.864h-1.971c-3.815,0-7.024-3.694-7.466-7.484
			c-0.562-4.818-2.202-9.686-4.64-13.566c-4.901-3.072-10.684-5.051-16.846-5.051c-16.101,0-29.648,11.264-31.51,27.234
			c-0.441,3.789-3.651,5.867-7.467,5.867h-20.923v52h111v-52h-12.125C209.377,199.669,206.168,198.323,205.725,194.533z"/>
		<path style="fill:#FDD44B;" d="M168.926,156.721c0.972,0.146,1.93,0.334,2.872,0.567
			C170.856,157.055,169.899,156.867,168.926,156.721z"/>
		<path style="fill:#FDD44B;" d="M176.618,158.894c0.912,0.389,1.801,0.818,2.667,1.288
			C178.419,159.713,177.53,159.283,176.618,158.894z"/>
		<path style="fill:#FDD44B;" d="M172.564,157.469c1.162,0.317,2.299,0.697,3.405,1.14
			C174.862,158.167,173.727,157.786,172.564,157.469z"/>
	</g>
	<path style="fill:#3F2D20;" d="M232.419,175.961h-23.048c-5.371-20.163-23.739-34.659-45.178-34.659
		c-21.441,0-39.807,14.494-45.179,34.659H95.967c-4.152,0-7.517,3.365-7.517,7.517v76.624c0,4.152,3.365,7.517,7.517,7.517h136.451
		c4.151,0,7.517-3.365,7.517-7.517v-76.624C239.936,179.326,236.57,175.961,232.419,175.961z M103.484,190.995h21.731
		c3.816,0,7.026-2.857,7.467-6.646c1.863-15.97,15.409-28.013,31.51-28.013c16.101,0,29.648,12.043,31.509,28.012
		c0.442,3.79,3.652,6.647,7.466,6.647h21.733v61.589H103.484V190.995z"/>
	<path style="fill:#3F2D20;" d="M287.672,71.438c0-2.262-1.004-4.285-2.584-5.663c-0.016-0.014-0.025-0.029-0.04-0.043
		l-27.794-23.83c5.829-4.205,9.632-11.049,9.632-18.767C266.886,10.378,256.509,0,243.753,0H84.633
		C71.877,0,61.499,10.378,61.499,23.135c0,7.719,3.805,14.563,9.632,18.767l-27.794,23.83l0.004,0.004
		c-1.607,1.378-2.628,3.42-2.628,5.702c0,4.152,3.366,7.517,7.517,7.517c3.182,0,5.577,0.502,7.655,1.362
		c-6.789,7.253-10.763,16.737-11.056,26.952c-0.014,0.188-0.027,184.997-0.027,184.997c0,19.915,16.203,36.118,36.119,36.118
		h166.543c19.916,0,36.119-16.203,36.119-36.118c0,0-0.016-184.809-0.029-184.995c-0.292-10.216-4.261-19.705-11.047-26.959
		c2.075-0.857,4.469-1.358,7.646-1.358C284.306,78.955,287.672,75.59,287.672,71.438z M247.465,313.351H80.921
		c-11.627,0-21.085-9.458-21.085-21.084V108.481c0-7.607,3.203-14.643,8.741-19.589c4.398,2.734,10.036,5.03,18.305,5.03
		c12.233,0,18.718-5.022,23.929-9.058c4.43-3.431,7.63-5.91,14.722-5.91c7.092,0,10.294,2.479,14.724,5.91
		c5.21,4.036,11.695,9.058,23.929,9.058s18.718-5.022,23.929-9.058c4.43-3.431,7.631-5.91,14.724-5.91
		c7.093,0,10.295,2.479,14.726,5.91c5.211,4.036,11.697,9.058,23.931,9.058c8.273,0,13.913-2.298,18.311-5.032
		c5.538,4.946,8.743,11.983,8.743,19.591v183.786C268.55,303.893,259.091,313.351,247.465,313.351z M84.633,15.034h159.12
		c4.465,0,8.099,3.634,8.099,8.101c0,4.465-3.633,8.099-8.099,8.099H84.633c-4.466,0-8.1-3.633-8.1-8.099
		C76.533,18.668,80.167,15.034,84.633,15.034z M89.137,46.268h150.111l24.91,21.357c-3.138,1.639-5.657,3.59-7.935,5.353
		c-4.431,3.432-7.632,5.911-14.728,5.911c-7.094,0-10.296-2.479-14.727-5.91c-5.211-4.036-11.697-9.058-23.93-9.058
		s-18.718,5.022-23.929,9.058c-4.43,3.431-7.631,5.91-14.724,5.91c-7.093,0-10.294-2.479-14.724-5.91
		c-5.211-4.036-11.695-9.058-23.929-9.058c-12.233,0-18.716,5.022-23.927,9.058c-4.43,3.431-7.631,5.91-14.723,5.91
		s-10.293-2.479-14.723-5.91c-2.276-1.764-4.797-3.715-7.933-5.353L89.137,46.268z"/>
</g>
<g>
</g>
<g>
</g>
<g>
</g>
<g>
</g>
<g>
</g>
<g>
</g>
<g>
</g>
<g>
</g>
<g>
</g>
<g>
</g>
<g>
</g>
<g>
</g>
<g>
</g>
<g>
</g>
<g>
</g>
</svg>
