<?xml version="1.0" encoding="UTF-8" standalone="no"?>
<!-- Generator: Adobe Illustrator 19.0.0, SVG Export Plug-In . SVG Version: 6.00 Build 0)  -->

<svg
   xmlns:dc="http://purl.org/dc/elements/1.1/"
   xmlns:cc="http://creativecommons.org/ns#"
   xmlns:rdf="http://www.w3.org/1999/02/22-rdf-syntax-ns#"
   xmlns:svg="http://www.w3.org/2000/svg"
   xmlns="http://www.w3.org/2000/svg"
   xmlns:sodipodi="http://sodipodi.sourceforge.net/DTD/sodipodi-0.dtd"
   xmlns:inkscape="http://www.inkscape.org/namespaces/inkscape"
   version="1.1"
   id="Capa_1"
   x="0px"
   y="0px"
   viewBox="0 0 58 58"
   style="enable-background:new 0 0 58 58;"
   xml:space="preserve"
   inkscape:version="0.48.4 r9939"
   width="100%"
   height="100%"
   sodipodi:docname="pin_left_.svg"><metadata
     id="metadata43"><rdf:RDF><cc:Work
         rdf:about=""><dc:format>image/svg+xml</dc:format><dc:type
           rdf:resource="http://purl.org/dc/dcmitype/StillImage" /><dc:title></dc:title></cc:Work></rdf:RDF></metadata><defs
     id="defs41" /><sodipodi:namedview
     pagecolor="#ffffff"
     bordercolor="#666666"
     borderopacity="1"
     objecttolerance="10"
     gridtolerance="10"
     guidetolerance="10"
     inkscape:pageopacity="0"
     inkscape:pageshadow="2"
     inkscape:window-width="1024"
     inkscape:window-height="716"
     id="namedview39"
     showgrid="false"
     inkscape:zoom="1.9"
     inkscape:cx="8.114232"
     inkscape:cy="31.301097"
     inkscape:window-x="0"
     inkscape:window-y="25"
     inkscape:window-maximized="1"
     inkscape:current-layer="Capa_1" /><line
     style="fill:none;stroke:#556080;stroke-width:2;stroke-linecap:round;stroke-miterlimit:10"
     x1="21.965485"
     y1="30.336578"
     x2="57.65797"
     y2="30.336578"
     id="line3" /><circle
     d="M 43,14 C 43,21.731986 36.731986,28 29,28 21.268014,28 15,21.731986 15,14 15,6.2680135 21.268014,0 29,0 36.731986,0 43,6.2680135 43,14 z"
     style="fill:#a1201a;fill-opacity:1"
     cx="29"
     cy="14"
     r="14"
     id="circle5"
     sodipodi:cx="29"
     sodipodi:cy="14"
     sodipodi:rx="14"
     sodipodi:ry="14"
     transform="matrix(0,-0.8,0.8,0,0.2346077,53.290816)" /><path
     style="fill:#d22920;fill-opacity:1"
     d="m 4.0056169,21.740388 c -6.828616,6.152129 -2.380707,13.886882 -2.380707,13.886882 0.748389,-5.63787 2.374371,-8.322363 5.7859252,-11.052125 3.4115549,-2.729762 5.7874789,-3.203662 11.9241639,-2.462419 0,0 -7.752377,-7.12318 -15.3293821,-0.372338 z"
     id="circle5-3"
     inkscape:connector-curvature="0"
     sodipodi:nodetypes="cczcc" /><circle
     style="fill:#f76363"
     cx="24"
     cy="10"
     r="3"
     id="circle7"
     sodipodi:cx="24"
     sodipodi:cy="10"
     sodipodi:rx="3"
     sodipodi:ry="3"
     transform="matrix(0.8,0,0,0.8,-12.028084,18.027798)" /></svg>