<?xml version="1.0" encoding="UTF-8" standalone="no"?>
<!-- Generator: Adobe Illustrator 19.0.0, SVG Export Plug-In . SVG Version: 6.00 Build 0)  -->

<svg
   xmlns:dc="http://purl.org/dc/elements/1.1/"
   xmlns:cc="http://creativecommons.org/ns#"
   xmlns:rdf="http://www.w3.org/1999/02/22-rdf-syntax-ns#"
   xmlns:svg="http://www.w3.org/2000/svg"
   xmlns="http://www.w3.org/2000/svg"
   xmlns:sodipodi="http://sodipodi.sourceforge.net/DTD/sodipodi-0.dtd"
   xmlns:inkscape="http://www.inkscape.org/namespaces/inkscape"
   version="1.1"
   id="Capa_1"
   x="0px"
   y="0px"
   viewBox="0 0 87.459 87.459"
   style="enable-background:new 0 0 87.459 87.459;"
   xml:space="preserve"
   inkscape:version="0.48.4 r9939"
   width="100%"
   height="100%"
   sodipodi:docname="quiet.svg"><metadata
     id="metadata47"><rdf:RDF><cc:Work
         rdf:about=""><dc:format>image/svg+xml</dc:format><dc:type
           rdf:resource="http://purl.org/dc/dcmitype/StillImage" /><dc:title></dc:title></cc:Work></rdf:RDF></metadata><defs
     id="defs45" /><sodipodi:namedview
     pagecolor="#ffffff"
     bordercolor="#666666"
     borderopacity="1"
     objecttolerance="10"
     gridtolerance="10"
     guidetolerance="10"
     inkscape:pageopacity="0"
     inkscape:pageshadow="2"
     inkscape:window-width="693"
     inkscape:window-height="482"
     id="namedview43"
     showgrid="false"
     inkscape:zoom="1.4555315"
     inkscape:cx="39.838179"
     inkscape:cy="36.007188"
     inkscape:window-x="246"
     inkscape:window-y="97"
     inkscape:window-maximized="0"
     inkscape:current-layer="Capa_1" /><path
     inkscape:connector-curvature="0"
     id="path5"
     d="M 50.019,73.283 H 79.765 V 55.66 c 4.907,-4.524 7.694,-10.849 7.694,-17.57 0,-13.186 -10.728,-23.913 -23.913,-23.913 -10.765,0 -20.254,7.251 -23.074,17.634 l -0.088,0.32 -0.178,3.921 -7.217,10.12 6.344,4.608 v 3.524 c 0,4.244 3.453,7.698 7.7,7.698 h 2.985 l 10e-4,11.281 0,0 z m 23.746,-6 H 56.019 V 56.004 h -8.985 c -0.938,0 -1.7,-0.763 -1.7,-1.699 v -6.58 l -4.006,-2.91 4.794,-6.72 0.227,-5.016 c 2.214,-7.612 9.241,-12.9 17.198,-12.9 9.877,0 17.913,8.036 17.913,17.913 0,5.4 -2.402,10.458 -6.591,13.877 l -1.103,0.9 -0.001,14.414 0,0 z" /><g
     id="g13" /><g
     id="g15" /><g
     id="g17" /><g
     id="g19" /><g
     id="g21" /><g
     id="g23" /><g
     id="g25" /><g
     id="g27" /><g
     id="g29" /><g
     id="g31" /><g
     id="g33" /><g
     id="g35" /><g
     id="g37" /><g
     id="g39" /><g
     id="g41" /><path
     style="fill:none;stroke:#000000;stroke-width:3;stroke-linecap:butt;stroke-linejoin:miter;stroke-opacity:1;stroke-miterlimit:4;stroke-dasharray:none"
     d="m 37.47075,63.698237 -1.894208,-4.774589 c -2.712766,-10 -3.280161,-15.035143 -5.610927,-14.310354 -2.075468,0.0723 1.092994,4.433375 1.465334,14.220609 0,0 -1.905978,-0.743528 -2.790635,-0.511088 -0.976499,0.256572 -0.913448,2.262837 -0.913448,2.262837 0,0 -1.081872,-0.117519 -1.897151,0.197028 -0.821358,0.316893 -0.25999,1.627576 -0.25999,1.627576 0,0 -1.233452,-0.914997 -2.180583,1.19517 -0.947131,2.110167 3.462213,7.137033 5.715889,9.766322 l 7.212689,-0.23471 c -0.836824,-3.301267 -0.01112,-6.382898 1.15303,-9.438801 z"
     id="path3120"
     inkscape:connector-curvature="0"
     sodipodi:nodetypes="ccccscsczccc" /></svg>