<?xml version="1.0" encoding="UTF-8" standalone="no"?>
<!-- Generator: Adobe Illustrator 19.0.0, SVG Export Plug-In . SVG Version: 6.00 Build 0)  -->

<svg
   xmlns:dc="http://purl.org/dc/elements/1.1/"
   xmlns:cc="http://creativecommons.org/ns#"
   xmlns:rdf="http://www.w3.org/1999/02/22-rdf-syntax-ns#"
   xmlns:svg="http://www.w3.org/2000/svg"
   xmlns="http://www.w3.org/2000/svg"
   xmlns:sodipodi="http://sodipodi.sourceforge.net/DTD/sodipodi-0.dtd"
   xmlns:inkscape="http://www.inkscape.org/namespaces/inkscape"
   version="1.1"
   id="Capa_1"
   x="0px"
   y="0px"
   viewBox="0 0 134.23863 127.42199"
   xml:space="preserve"
   inkscape:version="0.48.4 r9939"
   width="100%"
   height="100%"
   sodipodi:docname="quiet2.svg"><metadata
     id="metadata47"><rdf:RDF><cc:Work
         rdf:about=""><dc:format>image/svg+xml</dc:format><dc:type
           rdf:resource="http://purl.org/dc/dcmitype/StillImage" /><dc:title></dc:title></cc:Work></rdf:RDF></metadata><defs
     id="defs45" /><sodipodi:namedview
     pagecolor="#ffffff"
     bordercolor="#666666"
     borderopacity="1"
     objecttolerance="10"
     gridtolerance="10"
     guidetolerance="10"
     inkscape:pageopacity="0"
     inkscape:pageshadow="2"
     inkscape:window-width="1024"
     inkscape:window-height="716"
     id="namedview43"
     showgrid="false"
     inkscape:zoom="2.22"
     inkscape:cx="197.64047"
     inkscape:cy="69.897773"
     inkscape:window-x="0"
     inkscape:window-y="25"
     inkscape:window-maximized="1"
     inkscape:current-layer="layer1"
     fit-margin-top="0"
     fit-margin-left="0"
     fit-margin-right="0"
     fit-margin-bottom="0" /><g
     id="g3"
     transform="matrix(-1,0,0,1,107.17654,16.958717)"><path
       d="M 37.44,73.283 H 7.694 V 55.66 C 2.787,51.136 0,44.811 0,38.09 0,24.904 10.728,14.177 23.913,14.177 c 10.765,0 20.254,7.251 23.074,17.634 l 0.088,0.32 0.178,3.921 7.217,10.12 -6.344,4.608 v 3.524 c 0,4.244 -3.453,7.698 -7.7,7.698 h -2.985 l -0.001,11.281 0,0 z m -23.746,-6 H 31.44 V 56.004 h 8.985 c 0.938,0 1.7,-0.763 1.7,-1.699 v -6.58 l 4.006,-2.91 -4.794,-6.72 -0.227,-5.016 c -2.214,-7.612 -9.241,-12.9 -17.198,-12.9 -9.877,0 -17.913,8.036 -17.913,17.913 0,5.4 2.402,10.458 6.591,13.877 l 1.103,0.9 0.001,14.414 0,0 z"
       id="path5"
       inkscape:connector-curvature="0" /><path
       d="M 61.152,56.972 56.91,52.73 c 2.706,-2.707 2.706,-7.111 -10e-4,-9.819 l 4.244,-4.242 c 5.045,5.046 5.045,13.258 -10e-4,18.303 z"
       id="path7"
       inkscape:connector-curvature="0" /><path
       d="m 69.251,63.361 -4.242,-4.242 c 6.229,-6.229 6.229,-16.366 0,-22.596 l 4.242,-4.242 c 8.567,8.569 8.567,22.512 0,31.08 z"
       id="path9"
       inkscape:connector-curvature="0" /><path
       d="m 78.555,69.351 -4.244,-4.242 c 9.531,-9.533 9.531,-25.043 0.002,-34.575 l 4.242,-4.242 c 11.872,11.869 11.872,31.186 0,43.059 z"
       id="path11"
       inkscape:connector-curvature="0" /></g><g
     id="g13"
     transform="translate(19.71754,16.958717)" /><g
     id="g15"
     transform="translate(19.71754,16.958717)" /><g
     id="g17"
     transform="translate(19.71754,16.958717)" /><g
     id="g19"
     transform="translate(19.71754,16.958717)" /><g
     id="g21"
     transform="translate(19.71754,16.958717)" /><g
     id="g23"
     transform="translate(19.71754,16.958717)" /><g
     id="g25"
     transform="translate(19.71754,16.958717)" /><g
     id="g27"
     transform="translate(19.71754,16.958717)" /><g
     id="g29"
     transform="translate(19.71754,16.958717)" /><g
     id="g31"
     transform="translate(19.71754,16.958717)" /><g
     id="g33"
     transform="translate(19.71754,16.958717)" /><g
     id="g35"
     transform="translate(19.71754,16.958717)" /><g
     id="g37"
     transform="translate(19.71754,16.958717)" /><g
     id="g39"
     transform="translate(19.71754,16.958717)" /><g
     id="g41"
     transform="translate(19.71754,16.958717)" /><g
     inkscape:groupmode="layer"
     id="layer1"
     inkscape:label="no"
     transform="translate(19.71754,16.958717)"><path
       sodipodi:type="arc"
       style="fill:none;stroke:#fd0303;stroke-width:16.32910728;stroke-linejoin:miter;stroke-miterlimit:4;stroke-opacity:1;stroke-dasharray:none"
       id="path3927"
       sodipodi:cx="37.471783"
       sodipodi:cy="50.890152"
       sodipodi:rx="80.812637"
       sodipodi:ry="80.812637"
       d="m 117.53101,39.880984 c 6.0802,44.215493 -24.834567,84.988206 -69.05006,91.068396 -44.2154924,6.0802 -84.988204,-24.83457 -91.068399,-69.05006 -6.080195,-44.215493 24.834571,-84.988204 69.050064,-91.0684 44.196644,-6.077603 84.957495,24.8088263 91.061745,69.001798"
       sodipodi:start="6.1465296"
       sodipodi:end="12.429112"
       sodipodi:open="true"
       transform="matrix(0.75421955,0,0,0.71604414,19.142107,10.312513)" /><path
       style="fill:none;stroke:#fd0303;stroke-width:12;stroke-linecap:butt;stroke-linejoin:miter;stroke-miterlimit:4;stroke-opacity:1;stroke-dasharray:none"
       d="M 2.7088036,4.3707202 90.768309,90.16577"
       id="path3929"
       inkscape:connector-curvature="0"
       sodipodi:nodetypes="cc" /></g></svg>