<?xml version="1.0" encoding="iso-8859-1"?>
<!-- Generator: Adobe Illustrator 19.0.0, SVG Export Plug-In . SVG Version: 6.00 Build 0)  -->
<svg version="1.1" id="Capa_1" xmlns="http://www.w3.org/2000/svg" xmlns:xlink="http://www.w3.org/1999/xlink" x="0px" y="0px"
	 viewBox="0 0 512 512" style="enable-background:new 0 0 512 512;" xml:space="preserve">
<path style="fill:#FEDB41;" d="M496,45v422c0,16.5-13.5,30-30,30H45c-16.5,0-30-13.5-30-30V45c0-16.5,13.5-30,30-30h421
	C482.5,15,496,28.5,496,45z"/>
<path style="fill:#57555C;" d="M466,0H45C20.099,0,0,20.099,0,45v422c0,24.899,20.099,45,45,45h421c24.901,0,46-20.101,46-45V45
	C512,20.099,490.901,0,466,0z M482,467c0,8.399-7.599,15-16,15H45c-8.401,0-15-6.601-15-15V45c0-8.401,6.599-15,15-15h421
	c8.401,0,15.5,6.599,15.5,15L482,467z"/>
<path style="fill:#FCBF29;" d="M497,45v422c0,16.5-13.5,30-30,30H256V15h211C483.5,15,497,28.5,497,45z"/>
<path style="fill:#3C3A41;" d="M512,45v422c0,24.899-20.099,45-45,45H256v-30h211c8.401,0,15-6.601,15-15l-0.5-422
	c0-8.401-6.099-15-14.5-15H256V0h211C491.901,0,512,20.099,512,45z"/>
<path style="fill:#FEDB41;" d="M436,166v60H76l23.101-69.3c3.9-12.301,15.599-20.7,28.499-20.7H406C422.8,136,436,149.2,436,166z"/>
<path style="fill:#FCBF29;" d="M436,166v60H256v-90h150C422.8,136,436,149.2,436,166z"/>
<path style="fill:#57555C;" d="M406,121H127.599C108.401,121,91.3,133.299,85,151.599L65.2,211l24.3,30h303.9l57.6-30v-45
	C451,141.099,430.901,121,406,121z M151,211H96.7l16.5-49.501C115.3,155.2,121.3,151,127.599,151H151V211z M241,211h-60v-60h60V211z
	 M331,211h-60v-60h60V211z M421,211h-60v-60h45c8.401,0,15,6.599,15,15V211z"/>
<path style="fill:#3C3A41;" d="M406,121H256v120h137.401L451,211v-45C451,141.099,430.901,121,406,121z M331,211h-60v-60h60V211z
	 M421,211h-60v-60h45c8.401,0,15,6.599,15,15V211z"/>
<path style="fill:#57555C;" d="M451,211v105c0,24.899-20.099,45-45,45H106c-24.901,0-45-20.101-45-45v-15l13.5-12.601L61,271v-44.7
	c0-1.8,0.3-3.301,0.901-5.101L65.2,211H451z"/>
<g>
	<path style="fill:#3C3A41;" d="M451,211v105c0,24.899-20.099,45-45,45H256V211H451z"/>
	<path style="fill:#3C3A41;" d="M121,286c0,8.291-6.709,15-15,15H61v-30h45C114.291,271,121,277.709,121,286z"/>
	<path style="fill:#3C3A41;" d="M166,391c-24.814,0-45-20.186-45-45s20.186-45,45-45s45,20.186,45,45S190.814,391,166,391z"/>
</g>
<path style="fill:#FEDB41;" d="M166,361c-8.276,0-15-6.724-15-15s6.724-15,15-15s15,6.724,15,15S174.276,361,166,361z"/>
<path style="fill:#2B292C;" d="M346,391c-24.814,0-45-20.186-45-45s20.186-45,45-45s45,20.186,45,45S370.814,391,346,391z"/>
<path style="fill:#FCBF29;" d="M346,361c-8.276,0-15-6.724-15-15s6.724-15,15-15s15,6.724,15,15S354.276,361,346,361z"/>
<g>
</g>
<g>
</g>
<g>
</g>
<g>
</g>
<g>
</g>
<g>
</g>
<g>
</g>
<g>
</g>
<g>
</g>
<g>
</g>
<g>
</g>
<g>
</g>
<g>
</g>
<g>
</g>
<g>
</g>
</svg>
