<?xml version="1.0" encoding="iso-8859-1"?>
<!-- Generator: Adobe Illustrator 19.0.0, SVG Export Plug-In . SVG Version: 6.00 Build 0)  -->
<svg version="1.1" id="Layer_1" xmlns="http://www.w3.org/2000/svg" xmlns:xlink="http://www.w3.org/1999/xlink" x="0px" y="0px"
	 viewBox="0 0 512 512" style="enable-background:new 0 0 512 512;" xml:space="preserve">
<g>
	<g>
		<path d="M512,186.664c0-5.891-4.781-10.656-10.672-10.656c-4.922,0-9.062,3.344-10.281,7.891h-0.016l-10.234,38.016l-14.969,9.969
			c-4.875,3.25-11.312,4.891-17.75,4.891c-6.422,0-12.859-1.641-17.75-4.891l-11.891-7.922l19.438-19.438l-0.047-0.047
			c1.141-1.047,2.266-2.109,3.391-3.219c37.484-37.5,37.484-98.297-0.016-135.797c-28.016-28.031-69.047-35.109-103.656-21.234
			l0.016-0.016l-0.312,0.125c-0.125,0.047-0.25,0.109-0.359,0.156L186.58,106.758c-4.047,1.656-7.562,4.047-10.469,6.953
			c-8.859,8.859-12.031,22.5-6.984,34.797c5.625,13.688,19.641,21.375,33.656,19.594l-49.656,49.641l-7.297-4.859
			c-4.875-3.25-11.312-4.875-17.75-4.875c-6.422,0-12.859,1.625-17.75,4.875l-28.5,19c-4.875,3.25-11.312,4.891-17.75,4.891
			c-6.422,0-12.859-1.641-17.75-4.891l-15.164-10.109L20.971,183.9h-0.016c-1.219-4.547-5.352-7.891-10.289-7.891
			C4.773,176.007,0,180.773,0,186.664c0,0.969,0.141,1.891,0.375,2.781H0.367l76.789,285.218h357.688l76.797-285.218h-0.016
			C511.859,188.554,512,187.632,512,186.664z M287.97,113.07l-85.189,33.156c-3.547,1.453-6.641,0.609-8.156-0.031
			c-1.531-0.641-4.297-2.234-5.766-5.781c-1.641-4-0.719-8.562,2.328-11.625c1-0.984,2.172-1.75,3.5-2.297l0.016-0.016l0.031-0.016
			l143.922-59.688l0.031,0.375c10.547-5.547,22.359-8.484,34.625-8.484c19.953,0,38.703,7.766,52.812,21.875
			S448,113.398,448,133.351s-7.766,38.703-21.875,52.812c-1.109,1.109-150.859,150.812-150.859,150.812
			c-4.172,4.156-10.938,4.156-15.094,0s-4.156-10.938,0-15.094l67.891-67.875l-15.094-15.094l-98.047,98.062
			c-4.156,4.156-10.922,4.156-15.094,0c-4.156-4.156-4.156-10.938,0-15.094l98.062-98.046l-15.094-15.078L169.672,321.882
			c-4.172,4.156-10.938,4.156-15.094,0s-4.156-10.922,0-15.078l113.141-113.14l-15.078-15.078l-98.062,98.046
			c-4.156,4.156-10.922,4.156-15.078,0s-4.156-10.922,0-15.078L287.97,113.07z M418.5,453.335h-325L39.438,252.492
			c7.281,3.64,15.844,5.609,24.641,5.609c10.891,0,21.406-3,29.594-8.468l28.5-19c0.672-0.453,2.766-1.297,5.906-1.297
			s5.25,0.844,5.922,1.297l3.75,2.5l-13.344,13.328c-12.484,12.5-12.484,32.765,0,45.25c2.953,2.953,6.328,5.188,9.938,6.75
			c-7,12.219-5.281,28.078,5.156,38.516s26.281,12.141,38.5,5.156c1.562,3.594,3.812,6.984,6.75,9.922
			c12.5,12.5,32.766,12.5,45.25,0l8.844-8.828c1.516,3.188,3.594,6.188,6.25,8.828c12.5,12.5,32.75,12.5,45.25,0l112.719-112.718
			l15.438,10.297c8.188,5.469,18.688,8.468,29.578,8.468c8.734,0,17.219-1.938,24.469-5.515L418.5,453.335z"/>
	</g>
</g>
<g>
</g>
<g>
</g>
<g>
</g>
<g>
</g>
<g>
</g>
<g>
</g>
<g>
</g>
<g>
</g>
<g>
</g>
<g>
</g>
<g>
</g>
<g>
</g>
<g>
</g>
<g>
</g>
<g>
</g>
</svg>
